<?xml version="1.0"?>
<svg xmlns="http://www.w3.org/2000/svg" xmlns:xlink="http://www.w3.org/1999/xlink" xmlns:svgjs="http://svgjs.com/svgjs" version="1.1" width="512" height="512" x="0" y="0" viewBox="0 0 512 512" style="enable-background:new 0 0 512 512" xml:space="preserve" class=""><g>
<g xmlns="http://www.w3.org/2000/svg">
	<g>
		<path d="M364.493,405.186l-2.945,29.856l29.061,2.868C351.978,466.531,305.392,482,256.427,482    c-60.367,0-117.12-23.508-159.806-66.194C53.935,373.12,30.427,316.367,30.427,256S53.935,138.88,96.621,96.194    C139.307,53.508,196.06,30,256.427,30c12.485,0,25.008,1.025,37.221,3.048l4.902-29.597C284.722,1.161,270.55,0,256.427,0    c-68.38,0-132.667,26.629-181.02,74.98C27.055,123.333,0.427,187.62,0.427,256s26.628,132.667,74.98,181.02    C123.76,485.371,188.047,512,256.427,512c55.387,0,108.086-17.475,151.809-49.81l-2.622,26.568l29.854,2.946l7.772-78.746    L364.493,405.186z" fill="#deac46" data-original="#000000" style=""/>
	</g>
</g>
<g xmlns="http://www.w3.org/2000/svg">
	<g>
		<path d="M339.58,13.811l-9.74,28.375c11.737,4.029,23.23,9.077,34.159,15.004l14.302-26.371    C365.914,24.101,352.886,18.379,339.58,13.811z" fill="#deac46" data-original="#000000" style=""/>
	</g>
</g>
<g xmlns="http://www.w3.org/2000/svg">
	<g>
		<path d="M504.638,193.099l-29.086,7.35c3.036,12.014,5.092,24.399,6.11,36.809l29.899-2.453    C510.408,220.748,508.079,206.716,504.638,193.099z" fill="#deac46" data-original="#000000" style=""/>
	</g>
</g>
<g xmlns="http://www.w3.org/2000/svg">
	<g>
		<path d="M413.674,53.972l-18.442,23.662c9.801,7.639,19.042,16.148,27.465,25.294l22.065-20.325    C435.227,72.252,424.767,62.619,413.674,53.972z" fill="#deac46" data-original="#000000" style=""/>
	</g>
</g>
<g xmlns="http://www.w3.org/2000/svg">
	<g>
		<path d="M470.745,115.937l-25.098,16.435c6.813,10.405,12.799,21.44,17.79,32.797l27.465-12.069    C485.246,140.229,478.464,127.726,470.745,115.937z" fill="#deac46" data-original="#000000" style=""/>
	</g>
</g>
<g xmlns="http://www.w3.org/2000/svg">
	<g>
		<path d="M463.481,346.73c-4.987,11.364-10.969,22.404-17.779,32.815l25.105,16.423c7.715-11.794,14.493-24.304,20.145-37.182    L463.481,346.73z" fill="#deac46" data-original="#000000" style=""/>
	</g>
</g>
<g xmlns="http://www.w3.org/2000/svg">
	<g>
		<path d="M481.672,274.614c-1.011,12.414-3.061,24.803-6.091,36.823l29.09,7.334c3.435-13.623,5.757-27.66,6.902-41.721    L481.672,274.614z" fill="#deac46" data-original="#000000" style=""/>
	</g>
</g>
<g xmlns="http://www.w3.org/2000/svg">
	<g>
		<path d="M110.131,291.186c1.756-4.403,4.289-8.5,7.521-12.092l19.993-22.214c10.55-11.722,16.36-26.863,16.36-42.633    c0-21.16-17.215-38.375-38.375-38.375c-21.16,0-38.375,17.215-38.375,38.375v11.427h30v-11.427c0-4.618,3.757-8.375,8.375-8.375    s8.375,3.757,8.375,8.375c0,8.347-3.075,16.36-8.659,22.564l-19.992,22.214c-11.67,12.967-18.098,29.716-18.098,47.161v15h78.185    v-30H110.131z" fill="#deac46" data-original="#000000" style=""/>
	</g>
</g>
<g xmlns="http://www.w3.org/2000/svg">
	<g>
		<path d="M241.959,255.865v-79.993h-35.994l-45.43,76.322v33.671h51.424v34.073h30v-34.073h12.53v-30H241.959z M211.958,255.865    h-18.696l18.696-31.41V255.865z" fill="#deac46" data-original="#000000" style=""/>
	</g>
</g>
<g xmlns="http://www.w3.org/2000/svg">
	<g>
		<polygon points="365.176,175.872 365.176,205.872 406.579,205.872 385.516,317.148 414.993,322.728 442.79,175.872   " fill="#deac46" data-original="#000000" style=""/>
	</g>
</g>
<g xmlns="http://www.w3.org/2000/svg">
	<g>
		
			<rect x="233.973" y="233.865" transform="matrix(0.1628 -0.9867 0.9867 0.1628 10.6612 510.2962)" width="144.106" height="30.001" fill="#deac46" data-original="#000000" style=""/>
	</g>
</g>
<g xmlns="http://www.w3.org/2000/svg">
</g>
<g xmlns="http://www.w3.org/2000/svg">
</g>
<g xmlns="http://www.w3.org/2000/svg">
</g>
<g xmlns="http://www.w3.org/2000/svg">
</g>
<g xmlns="http://www.w3.org/2000/svg">
</g>
<g xmlns="http://www.w3.org/2000/svg">
</g>
<g xmlns="http://www.w3.org/2000/svg">
</g>
<g xmlns="http://www.w3.org/2000/svg">
</g>
<g xmlns="http://www.w3.org/2000/svg">
</g>
<g xmlns="http://www.w3.org/2000/svg">
</g>
<g xmlns="http://www.w3.org/2000/svg">
</g>
<g xmlns="http://www.w3.org/2000/svg">
</g>
<g xmlns="http://www.w3.org/2000/svg">
</g>
<g xmlns="http://www.w3.org/2000/svg">
</g>
<g xmlns="http://www.w3.org/2000/svg">
</g>
</g></svg>
