<?xml version="1.0"?>
<svg xmlns="http://www.w3.org/2000/svg" xmlns:xlink="http://www.w3.org/1999/xlink" xmlns:svgjs="http://svgjs.com/svgjs" version="1.1" width="512" height="512" x="0" y="0" viewBox="0 0 480 480" style="enable-background:new 0 0 512 512" xml:space="preserve"><g>
<g xmlns="http://www.w3.org/2000/svg">
	<g>
		<g>
			<path d="M456,108.672H24c-13.255,0-24,10.745-24,24v127.136c0.018,13.725,11.139,24.846,24.864,24.864h430.272     c13.725-0.018,24.846-11.139,24.864-24.864V132.672C480,119.417,469.255,108.672,456,108.672z M464,259.808     c-0.004,4.894-3.97,8.86-8.864,8.864H24.864c-4.894-0.004-8.86-3.97-8.864-8.864V132.672c0-4.418,3.582-8,8-8h432     c4.418,0,8,3.582,8,8V259.808z" fill="#deac46" data-original="#000000" style=""/>
			<path d="M432,212.672H48c-4.418,0-8,3.582-8,8v32c0,4.418,3.582,8,8,8h384c4.418,0,8-3.582,8-8v-32     C440,216.254,436.418,212.672,432,212.672z M104,244.672H56v-16h48V244.672z M168,244.672h-48v-16h48V244.672z M232,244.672h-48     v-16h48V244.672z M296,244.672h-48v-16h48V244.672z M360,244.672h-48v-16h48V244.672z M424,244.672h-48v-16h48V244.672z" fill="#deac46" data-original="#000000" style=""/>
			<rect x="40" y="156.672" width="32" height="16" fill="#deac46" data-original="#000000" style=""/>
			<rect x="88" y="156.672" width="16" height="16" fill="#deac46" data-original="#000000" style=""/>
			<rect x="432" y="140.672" width="16" height="16" fill="#deac46" data-original="#000000" style=""/>
			<rect x="432" y="164.672" width="16" height="16" fill="#deac46" data-original="#000000" style=""/>
			<rect x="408" y="140.672" width="16" height="16" fill="#deac46" data-original="#000000" style=""/>
			<path d="M85.656,327.016c-5.713-5.032-6.265-13.742-1.234-19.454c0.385-0.437,0.797-0.849,1.234-1.234l-11.312-11.312     c-11.96,11.28-12.512,30.12-1.232,42.08c0.398,0.422,0.809,0.833,1.232,1.232c2.063,1.596,3.228,4.09,3.128,6.696     c-0.528,5.48-7.52,11.376-9.936,13.008l4.464,6.64l4.44,6.656c8.721-5.642,14.825-14.537,16.952-24.704     C93.999,339.241,91.14,331.996,85.656,327.016z" fill="#deac46" data-original="#000000" style=""/>
			<path d="M149.656,327.016c-5.713-5.032-6.265-13.742-1.234-19.454c0.385-0.437,0.797-0.849,1.234-1.234l-11.312-11.312     c-11.96,11.28-12.512,30.12-1.232,42.08c0.398,0.422,0.809,0.833,1.232,1.232c2.063,1.596,3.228,4.09,3.128,6.696     c-0.528,5.48-7.52,11.376-9.936,13.008l4.464,6.64l4.44,6.656c8.721-5.642,14.825-14.537,16.952-24.704     C157.999,339.241,155.14,331.996,149.656,327.016z" fill="#deac46" data-original="#000000" style=""/>
			<path d="M213.656,327.016c-5.713-5.032-6.265-13.742-1.234-19.454c0.385-0.437,0.797-0.849,1.234-1.234l-11.312-11.312     c-11.96,11.28-12.512,30.12-1.232,42.08c0.398,0.422,0.809,0.833,1.232,1.232c2.063,1.596,3.228,4.09,3.128,6.696     c-0.528,5.48-7.52,11.376-9.936,13.008l4.464,6.64l4.44,6.656c8.721-5.642,14.825-14.537,16.952-24.704     C221.999,339.241,219.14,331.996,213.656,327.016z" fill="#deac46" data-original="#000000" style=""/>
			<path d="M277.656,327.016c-5.713-5.032-6.265-13.742-1.234-19.454c0.385-0.437,0.797-0.849,1.234-1.234l-11.312-11.312     c-11.96,11.28-12.512,30.12-1.232,42.08c0.398,0.422,0.809,0.833,1.232,1.232c2.063,1.596,3.228,4.09,3.128,6.696     c-0.528,5.48-7.52,11.376-9.936,13.008l4.464,6.64l4.44,6.656c8.721-5.642,14.825-14.537,16.952-24.704     C285.999,339.241,283.14,331.996,277.656,327.016z" fill="#deac46" data-original="#000000" style=""/>
			<path d="M341.656,327.016c-5.713-5.032-6.265-13.742-1.234-19.454c0.385-0.437,0.797-0.849,1.234-1.234l-11.312-11.312     c-11.96,11.28-12.512,30.12-1.232,42.08c0.398,0.422,0.809,0.833,1.232,1.232c2.063,1.596,3.228,4.09,3.128,6.696     c-0.528,5.48-7.52,11.376-9.936,13.008l4.464,6.64l4.44,6.656c8.721-5.642,14.825-14.537,16.952-24.704     C349.999,339.241,347.14,331.996,341.656,327.016z" fill="#deac46" data-original="#000000" style=""/>
			<path d="M405.656,327.016c-5.713-5.032-6.265-13.742-1.234-19.454c0.385-0.437,0.797-0.849,1.234-1.234l-11.312-11.312     c-11.96,11.28-12.512,30.12-1.232,42.08c0.398,0.422,0.809,0.833,1.232,1.232c2.063,1.596,3.228,4.09,3.128,6.696     c-0.528,5.48-7.52,11.376-9.936,13.008l4.464,6.64l4.44,6.656c8.721-5.642,14.825-14.537,16.952-24.704     C413.999,339.241,411.14,331.996,405.656,327.016z" fill="#deac46" data-original="#000000" style=""/>
		</g>
	</g>
</g>
<g xmlns="http://www.w3.org/2000/svg">
</g>
<g xmlns="http://www.w3.org/2000/svg">
</g>
<g xmlns="http://www.w3.org/2000/svg">
</g>
<g xmlns="http://www.w3.org/2000/svg">
</g>
<g xmlns="http://www.w3.org/2000/svg">
</g>
<g xmlns="http://www.w3.org/2000/svg">
</g>
<g xmlns="http://www.w3.org/2000/svg">
</g>
<g xmlns="http://www.w3.org/2000/svg">
</g>
<g xmlns="http://www.w3.org/2000/svg">
</g>
<g xmlns="http://www.w3.org/2000/svg">
</g>
<g xmlns="http://www.w3.org/2000/svg">
</g>
<g xmlns="http://www.w3.org/2000/svg">
</g>
<g xmlns="http://www.w3.org/2000/svg">
</g>
<g xmlns="http://www.w3.org/2000/svg">
</g>
<g xmlns="http://www.w3.org/2000/svg">
</g>
</g></svg>
