<?xml version="1.0"?>
<svg xmlns="http://www.w3.org/2000/svg" xmlns:xlink="http://www.w3.org/1999/xlink" xmlns:svgjs="http://svgjs.com/svgjs" version="1.1" width="512" height="512" x="0" y="0" viewBox="0 0 442.451 442.451" style="enable-background:new 0 0 512 512" xml:space="preserve"><g>
<g xmlns="http://www.w3.org/2000/svg">
	<g>
		<g>
			<path d="M341.755,135.35c-29.932-12.822-64.591,1.048-77.413,30.98h0.04c-6.19,14.348-6.406,30.572-0.6,45.08     c5.804,14.537,17.151,26.169,31.54,32.333c29.932,12.822,64.591-1.048,77.413-30.98     C385.557,182.831,371.686,148.172,341.755,135.35z M335.947,233.134c-24.037,9.622-51.323-2.063-60.945-26.099     c-9.622-24.037,2.063-51.323,26.099-60.945c11.581-4.66,24.547-4.487,36,0.48c11.373,4.909,20.341,14.119,24.945,25.619     C371.669,196.226,359.984,223.512,335.947,233.134z" fill="#deac46" data-original="#000000" style=""/>
			<path d="M39.581,100.37l-34.24,4c-3.314,0.387-5.687,3.386-5.3,6.7s3.386,5.687,6.7,5.3l34.24-4c3.314-0.387,5.687-3.386,5.3-6.7     C45.895,102.356,42.895,99.983,39.581,100.37z" fill="#deac46" data-original="#000000" style=""/>
			<path d="M47.581,66.61l-31.68-13.6c-3.071-1.314-6.626,0.109-7.94,3.18c-1.314,3.071,0.109,6.626,3.18,7.94l31.68,13.6     c3.071,1.314,6.626-0.109,7.94-3.18C52.076,71.479,50.652,67.924,47.581,66.61z" fill="#deac46" data-original="#000000" style=""/>
			<path d="M71.581,41.37l-20.8-27.6c-1.999-2.673-5.787-3.219-8.46-1.22c-2.673,1.999-3.219,5.787-1.22,8.46l20.8,27.6     c1.999,2.673,5.787,3.219,8.46,1.22S73.581,44.043,71.581,41.37z" fill="#deac46" data-original="#000000" style=""/>
			<path d="M406.941,220.93c16.482-46.433-5.804-97.699-51-117.32l-0.56-0.24l-0.16,0.04c-44.72-19.12-106.48-32.48-162.84-44.88     c-21.8-4.72-42.8-9.24-60.92-13.68h-0.24c-6.675-1.757-13.731-1.408-20.2,1c-6.152,2.363-11.077,7.129-13.64,13.2l-25.68,60     c-2.579,6.057-2.579,12.903,0,18.96c2.711,6.359,7.321,11.724,13.2,15.36c16,10.4,33.68,22.4,52,34.88     c33.12,22.6,68.52,46.76,102.16,65.8l-32.52,75.72c-10.394,24.179,0.781,52.206,24.96,62.6     c24.179,10.394,52.206-0.781,62.6-24.96l36.48-84.92c30.675-3.997,57.412-22.849,71.48-50.4c29.44,13.88,31.68,30.88,24,49.36     c-6.03,12.639-13.221,24.691-21.48,36c-25.68,38.12-52.64,78.08-1.36,112.88c2.568,1.444,5.803,0.825,7.656-1.465     c2.098-2.593,1.697-6.396-0.896-8.495c-41.32-28-17.8-62.76,4.64-96c8.735-12.026,16.302-24.857,22.6-38.32     C447.581,261.17,444.981,238.57,406.941,220.93z M91.301,143.41c-3.762-2.263-6.736-5.629-8.52-9.64     c-1.318-3.106-1.318-6.614,0-9.72l25.68-60c1.306-3.105,3.818-5.546,6.96-6.76c4.142-1.477,8.639-1.645,12.88-0.48h0.24l6.64,1.6     l-38.08,88.64L91.301,143.41z M283.381,363.01c-7.868,17.373-28.041,25.446-45.723,18.297     c-18.207-7.362-26.999-28.09-19.637-46.297l32-74.6c9.52,5.2,18.92,9.96,28,13.96h0.28l0.56,0.24h0.28h0.28l1.92,0.84l0.52,0.24     c1.493,0.613,2.987,1.2,4.48,1.76l1.12,0.72h0.4h0.36c9.298,3.209,19.045,4.924,28.88,5.08L283.381,363.01z M393.141,222.05     c-11.778,27.409-37.58,46.2-67.28,49h-0.76l0.32-0.16c-13.415,1.123-26.898-1.104-39.24-6.48h-0.28     c-43.64-18.84-95.32-54.16-142.36-86.16c-12.28-8.44-24.44-16.76-36-24.44l39.8-92.56c13.72,3.16,28,6.24,42.64,9.4     c55.8,12,117.08,25.24,160.76,44c0.078,0.034,0.156,0.067,0.234,0.101C392.248,132.737,411.127,180.776,393.141,222.05z" fill="#deac46" data-original="#000000" style=""/>
		</g>
	</g>
</g>
<g xmlns="http://www.w3.org/2000/svg">
</g>
<g xmlns="http://www.w3.org/2000/svg">
</g>
<g xmlns="http://www.w3.org/2000/svg">
</g>
<g xmlns="http://www.w3.org/2000/svg">
</g>
<g xmlns="http://www.w3.org/2000/svg">
</g>
<g xmlns="http://www.w3.org/2000/svg">
</g>
<g xmlns="http://www.w3.org/2000/svg">
</g>
<g xmlns="http://www.w3.org/2000/svg">
</g>
<g xmlns="http://www.w3.org/2000/svg">
</g>
<g xmlns="http://www.w3.org/2000/svg">
</g>
<g xmlns="http://www.w3.org/2000/svg">
</g>
<g xmlns="http://www.w3.org/2000/svg">
</g>
<g xmlns="http://www.w3.org/2000/svg">
</g>
<g xmlns="http://www.w3.org/2000/svg">
</g>
<g xmlns="http://www.w3.org/2000/svg">
</g>
</g></svg>
