<?xml version="1.0"?>
<svg xmlns="http://www.w3.org/2000/svg" xmlns:xlink="http://www.w3.org/1999/xlink" xmlns:svgjs="http://svgjs.com/svgjs" version="1.1" width="512" height="512" x="0" y="0" viewBox="0 0 512 512" style="enable-background:new 0 0 512 512" xml:space="preserve" class=""><g>
<g xmlns="http://www.w3.org/2000/svg">
	<g>
		<path d="M504.394,158.336c-66.408,0-130.459-20.261-192.4-39.856c-49.456-15.645-100.596-31.822-151.349-36.816    c-57.327-5.64-108.536,3.804-156.557,28.873c-3.723,1.944-5.166,6.536-3.222,10.259c1.944,3.724,6.536,5.167,10.259,3.222    c101.106-52.779,195.91-22.789,296.283,8.961c63.043,19.943,128.231,40.564,196.987,40.564c4.199,0,7.604-3.404,7.604-7.604    S508.593,158.336,504.394,158.336z" fill="#deac46" data-original="#000000" style="" class=""/>
	</g>
</g>
<g xmlns="http://www.w3.org/2000/svg">
	<g>
		<path d="M507.913,419.464c-48.022-25.07-99.233-34.516-156.557-28.873c-50.754,4.994-101.893,21.171-151.349,36.816    c-38.057,12.04-77.411,24.488-117.081,32.13c-4.123,0.795-6.822,4.781-6.028,8.906c0.701,3.638,3.886,6.167,7.458,6.167    c0.477,0,0.961-0.045,1.447-0.139c40.538-7.81,80.319-20.394,118.79-32.564c100.373-31.75,195.177-61.741,296.282-8.961    c3.723,1.944,8.317,0.501,10.259-3.222C513.079,426.001,511.636,421.407,507.913,419.464z" fill="#deac46" data-original="#000000" style="" class=""/>
	</g>
</g>
<g xmlns="http://www.w3.org/2000/svg">
	<g>
		<path d="M68.076,469.931c-0.586-4.158-4.427-7.05-8.59-6.469c-18.155,2.558-35.126,3.802-51.881,3.802    c-4.199,0-7.604,3.405-7.604,7.604s3.405,7.604,7.604,7.604c17.473,0,35.137-1.292,54.003-3.95    C65.767,477.935,68.662,474.089,68.076,469.931z" fill="#deac46" data-original="#000000" style="" class=""/>
	</g>
</g>
<g xmlns="http://www.w3.org/2000/svg">
	<g>
		<path d="M104.304,291.299c-13.471,0-24.431,10.96-24.431,24.431s10.96,24.431,24.431,24.431c13.471,0,24.431-10.96,24.431-24.431    S117.775,291.299,104.304,291.299z M104.304,324.953c-5.086,0-9.223-4.138-9.223-9.223s4.138-9.223,9.223-9.223    s9.223,4.138,9.223,9.223C113.527,320.815,109.39,324.953,104.304,324.953z" fill="#deac46" data-original="#000000" style="" class=""/>
	</g>
</g>
<g xmlns="http://www.w3.org/2000/svg">
	<g>
		<path d="M281.974,291.299c-13.471,0-24.431,10.96-24.431,24.431s10.96,24.431,24.431,24.431s24.431-10.96,24.431-24.431    S295.446,291.299,281.974,291.299z M281.974,324.953c-5.086,0-9.223-4.138-9.223-9.223s4.138-9.223,9.223-9.223    c5.086,0,9.223,4.138,9.223,9.223C291.197,320.815,287.06,324.953,281.974,324.953z" fill="#deac46" data-original="#000000" style="" class=""/>
	</g>
</g>
<g xmlns="http://www.w3.org/2000/svg">
	<g>
		<path d="M208.98,253.633h-13.686c-4.199,0-7.604,3.404-7.604,7.604s3.404,7.604,7.604,7.604h13.686    c4.199,0,7.604-3.405,7.604-7.604S213.179,253.633,208.98,253.633z" fill="#deac46" data-original="#000000" style="" class=""/>
	</g>
</g>
<g xmlns="http://www.w3.org/2000/svg">
	<g>
		<path d="M242.436,141.608H90.365c-4.199,0-7.604,3.405-7.604,7.604s3.404,7.604,7.604,7.604h152.071    c4.199,0,7.604-3.404,7.604-7.604S246.636,141.608,242.436,141.608z" fill="#deac46" data-original="#000000" style="" class=""/>
	</g>
</g>
<g xmlns="http://www.w3.org/2000/svg">
	<g>
		<path d="M504.394,346.904H403.126c-4.199,0-7.604,3.405-7.604,7.604c0,4.199,3.405,7.604,7.604,7.604h101.268    c4.199,0,7.604-3.405,7.604-7.604C511.998,350.308,508.594,346.904,504.394,346.904z" fill="#deac46" data-original="#000000" style="" class=""/>
	</g>
</g>
<g xmlns="http://www.w3.org/2000/svg">
	<g>
		<path d="M377.779,346.904h-61.49c6.08-6.686,10.229-15.152,11.582-24.511c5.178-1.388,9.894-4.271,13.509-8.367    c5.219-5.915,7.651-13.797,6.669-21.625l-7.332-58.47c-0.478-3.804-3.712-6.658-7.545-6.658h-62.739l-6.764-53.667    c-0.48-3.802-3.713-6.653-7.544-6.653H67.047c-3.952,0-7.246,3.028-7.578,6.967l-4.56,54.26    c-11.96,3.137-20.811,14.041-20.811,26.972v36.753c0,14.886,10.407,27.379,24.325,30.608c1.371,9.311,5.513,17.732,11.566,24.389    H7.606c-4.199,0-7.604,3.405-7.604,7.604c0,4.199,3.405,7.604,7.604,7.604h370.173v0.001c4.199,0,7.604-3.405,7.604-7.604    C385.383,350.308,381.978,346.904,377.779,346.904z M202.898,182.161h46.519l5.687,45.112h-52.205V182.161z M110.64,182.161    h45.622v45.112H110.64V182.161z M74.039,182.161h21.393v45.112H70.247L74.039,182.161z M104.304,346.904    c-17.19,0-31.174-13.984-31.174-31.174c0-17.19,13.984-31.174,31.174-31.174s31.174,13.984,31.174,31.174    C135.478,332.92,121.494,346.904,104.304,346.904z M138.618,346.904c5.875-6.461,9.945-14.585,11.434-23.57h86.174    c1.488,8.985,5.559,17.109,11.433,23.57H138.618z M281.974,346.904c-17.19,0-31.174-13.984-31.174-31.174    c0-17.19,13.984-31.174,31.174-31.174c17.19,0,31.174,13.984,31.174,31.174C313.148,332.92,299.164,346.904,281.974,346.904z     M281.975,269.348c-22.985,0-42.108,16.809-45.748,38.778h-86.174c-3.64-21.969-22.763-38.778-45.748-38.778    c-22.47,0-41.254,16.064-45.485,37.309c-5.605-2.558-9.515-8.2-9.515-14.751v-36.753c0-6.987,5.684-12.671,12.671-12.671h101.889    c4.199,0,7.604-3.405,7.604-7.604v-52.716h16.22v52.716c0,4.199,3.404,7.604,7.604,7.604h131.168l1.442,11.494h-4.869    c-4.199,0-7.604,3.405-7.604,7.604s3.405,7.604,7.604,7.604h6.776l3.149,25.11c0.445,3.552-0.613,6.986-2.982,9.67    c-0.777,0.881-1.66,1.617-2.611,2.228C322.956,285.177,304.282,269.348,281.975,269.348z" fill="#deac46" data-original="#000000" style="" class=""/>
	</g>
</g>
<g xmlns="http://www.w3.org/2000/svg">
	<g>
		<path d="M467.018,34.227c-4.199,0-7.604,3.405-7.604,7.604v15.634c0,5.076-4.129,9.206-9.206,9.206h-1.198V26.623    c0-4.199-3.405-7.604-7.604-7.604s-7.604,3.405-7.604,7.604v78.556c-4.915-0.185-8.859-4.229-8.859-9.189V73.259    c0-4.199-3.405-7.604-7.604-7.604s-7.604,3.405-7.604,7.604V95.99c0,13.345,10.765,24.218,24.067,24.405v14.708    c0,4.199,3.404,7.604,7.604,7.604s7.604-3.405,7.604-7.604V81.878h1.198c13.462,0,24.414-10.952,24.414-24.414V41.831    C474.622,37.631,471.218,34.227,467.018,34.227z" fill="#deac46" data-original="#000000" style="" class=""/>
	</g>
</g>
<g xmlns="http://www.w3.org/2000/svg">
	<g>
		<path d="M370.431,29.157c-4.199,0-7.604,3.405-7.604,7.604v53.207c-4.915-0.185-8.859-4.229-8.859-9.189V58.049    c0-4.199-3.405-7.604-7.604-7.604c-4.199,0-7.604,3.405-7.604,7.604V80.78c0,13.346,10.765,24.219,24.067,24.406v14.708    c0,4.199,3.405,7.604,7.604,7.604c4.199,0,7.604-3.404,7.604-7.604V36.761C378.035,32.562,374.631,29.157,370.431,29.157z" fill="#deac46" data-original="#000000" style="" class=""/>
	</g>
</g>
<g xmlns="http://www.w3.org/2000/svg">
	<g>
		<path d="M378.609,459.169c-1.177-2.789-3.926-4.657-6.959-4.696c-3.347-0.044-6.355,2.217-7.338,5.394    c-2.022,6.53,5.352,12.192,11.161,8.741C378.694,466.694,379.996,462.631,378.609,459.169z" fill="#deac46" data-original="#000000" style="" class=""/>
	</g>
</g>
<g xmlns="http://www.w3.org/2000/svg">
	<g>
		<path d="M397.872,474.377c-2.639-6.254-11.869-6.083-14.179,0.346c-2.395,6.665,5.212,12.722,11.174,9.011    C398.005,481.781,399.237,477.785,397.872,474.377z" fill="#deac46" data-original="#000000" style="" class=""/>
	</g>
</g>
<g xmlns="http://www.w3.org/2000/svg">
	<g>
		<path d="M61.577,403.103c-1.856-2.817-5.509-4.048-8.701-2.992c-3.025,1.001-5.133,3.849-5.214,7.032    c-0.174,6.824,8.549,10.407,13.191,5.332C63.178,409.933,63.534,405.972,61.577,403.103z" fill="#deac46" data-original="#000000" style="" class=""/>
	</g>
</g>
<g xmlns="http://www.w3.org/2000/svg">
	<g>
		<path d="M86.933,392.964c-1.909-2.795-5.476-4.057-8.707-2.992c-2.955,0.975-5.057,3.735-5.214,6.846    c-0.341,6.752,8.185,10.605,12.978,5.748C88.51,400.013,88.905,395.96,86.933,392.964z" fill="#deac46" data-original="#000000" style="" class=""/>
	</g>
</g>
<g xmlns="http://www.w3.org/2000/svg">
	<g>
		<path d="M372.526,482.488c-2.635-6.246-11.863-6.098-14.179,0.346c-1.05,2.924-0.168,6.288,2.189,8.314    c2.458,2.112,6.07,2.437,8.854,0.78C372.612,490.009,373.912,485.949,372.526,482.488z" fill="#deac46" data-original="#000000" style="" class=""/>
	</g>
</g>
<g xmlns="http://www.w3.org/2000/svg">
	<g>
		<path d="M73.866,413.291c-3.2-1.063-6.837,0.187-8.712,2.992c-3.681,5.509,1.322,13.012,7.817,11.68    c3.504-0.719,6.115-3.869,6.115-7.452C79.086,417.257,76.95,414.315,73.866,413.291z" fill="#deac46" data-original="#000000" style="" class=""/>
	</g>
</g>
<g xmlns="http://www.w3.org/2000/svg">
</g>
<g xmlns="http://www.w3.org/2000/svg">
</g>
<g xmlns="http://www.w3.org/2000/svg">
</g>
<g xmlns="http://www.w3.org/2000/svg">
</g>
<g xmlns="http://www.w3.org/2000/svg">
</g>
<g xmlns="http://www.w3.org/2000/svg">
</g>
<g xmlns="http://www.w3.org/2000/svg">
</g>
<g xmlns="http://www.w3.org/2000/svg">
</g>
<g xmlns="http://www.w3.org/2000/svg">
</g>
<g xmlns="http://www.w3.org/2000/svg">
</g>
<g xmlns="http://www.w3.org/2000/svg">
</g>
<g xmlns="http://www.w3.org/2000/svg">
</g>
<g xmlns="http://www.w3.org/2000/svg">
</g>
<g xmlns="http://www.w3.org/2000/svg">
</g>
<g xmlns="http://www.w3.org/2000/svg">
</g>
</g></svg>
