<?xml version="1.0"?>
<svg xmlns="http://www.w3.org/2000/svg" xmlns:xlink="http://www.w3.org/1999/xlink" xmlns:svgjs="http://svgjs.com/svgjs" version="1.1" width="512" height="512" x="0" y="0" viewBox="0 0 64 64" style="enable-background:new 0 0 512 512" xml:space="preserve" class=""><g><path xmlns="http://www.w3.org/2000/svg" d="M52,30a6,6,0,1,0,6,6A6.006,6.006,0,0,0,52,30Zm0,10a4,4,0,1,1,4-4A4,4,0,0,1,52,40Z" fill="#deac46" data-original="#000000" style="" class=""/><path xmlns="http://www.w3.org/2000/svg" d="M28,14a6,6,0,1,0-6-6A6.006,6.006,0,0,0,28,14ZM28,4a4,4,0,1,1-4,4A4,4,0,0,1,28,4Z" fill="#deac46" data-original="#000000" style="" class=""/><path xmlns="http://www.w3.org/2000/svg" d="M61,44H44.883L44,36.932A3,3,0,0,0,41,34l-18.1.005-20,2A1,1,0,0,0,2,37v4a1,1,0,0,0,1,1H38.121l.258,2H3a1,1,0,0,0-1,1v8a1,1,0,0,0,1,1H8v7a1,1,0,0,0,1,1H21a1,1,0,0,0,1-1V54H42v7a1,1,0,0,0,1,1H55a1,1,0,0,0,1-1V54h5a1,1,0,0,0,1-1V45A1,1,0,0,0,61,44ZM4,40V37.9L23,36H41a1,1,0,0,1,1,1,1.032,1.032,0,0,0,.008.124l1,8A1,1,0,0,0,44,46H55a1,1,0,0,1,0,2H41.79a1,1,0,0,1-.995-.907l-.8-6.221A1,1,0,0,0,39,40ZM20,60H18V58H16v2H14V57H12v3H10V54H20Zm34,0H52V57H50v3H48V56H46v4H44V54H54Zm6-8H4V50H20V48H4V46H38.637l.172,1.331A3,3,0,0,0,41.79,50H55a3,3,0,0,0,3-3,2.966,2.966,0,0,0-.184-1H60Z" fill="#deac46" data-original="#000000" style="" class=""/><path xmlns="http://www.w3.org/2000/svg" d="M21.044,17.706l-4,13A1,1,0,0,0,18,32H28a1,1,0,0,0,.977-.783l1.456-6.553,1.71,2.851a1,1,0,0,0,.486.414l7.34,2.935a2.944,2.944,0,0,0,2.55-5.291.958.958,0,0,0-.121-.058L36.7,23.2C32.552,16,31.506,16,31,16H23A2.267,2.267,0,0,0,21.044,17.706ZM23.129,18h7.663a39.566,39.566,0,0,1,4.34,6.5,1,1,0,0,0,.492.431l5.949,2.411a.948.948,0,0,1,.427.8.94.94,0,0,1-1.289.872L33.685,26.2l-2.828-4.711a1,1,0,0,0-1.834.3L27.2,30H19.354l3.607-11.725A.782.782,0,0,1,23.129,18Z" fill="#deac46" data-original="#000000" style="" class=""/><rect xmlns="http://www.w3.org/2000/svg" x="22" y="48" width="2" height="2" fill="#deac46" data-original="#000000" style="" class=""/><rect xmlns="http://www.w3.org/2000/svg" x="26" y="48" width="10" height="2" fill="#deac46" data-original="#000000" style="" class=""/></g></svg>
