<?xml version="1.0"?>
<svg xmlns="http://www.w3.org/2000/svg" xmlns:xlink="http://www.w3.org/1999/xlink" xmlns:svgjs="http://svgjs.com/svgjs" version="1.1" width="512" height="512" x="0" y="0" viewBox="0 0 500 500" style="enable-background:new 0 0 512 512" xml:space="preserve"><g><g xmlns="http://www.w3.org/2000/svg"><path d="m240.01 41.5c0-5.51 4.49-10 10-10s10 4.49 10 10-4.49 10-10 10-10-4.49-10-10zm249.99 310h-53.028c1.939 4.273 3.028 9.01 3.028 14v6.005h26c18.748 0 34 15.252 34 34v52.995c0 5.522-4.478 10-10 10h-480c-5.523 0-10-4.478-10-10v-52.995c0-18.748 15.252-34 34-34h26v-6.005c0-4.99 1.089-9.727 3.029-14h-53.029c-5.523 0-10-4.478-10-10v-300c0-5.522 4.477-10 10-10h196.01c5.52 0 10 4.49 10 10s-4.48 10-10 10h-40.89c12.68 35.89 46.77 60 84.83 60h.1c38.06 0 72.14-24.11 84.83-60h-39.86s0 0-.01 0c-5.51 0-10-4.49-10-10s4.49-10 10-10h194.99c5.522 0 10 4.478 10 10v300c0 5.522-4.478 10-10 10zm-10.679-300h-123.474c-2.992 10.578-7.529 20.504-13.348 29.527 17.094 19.448 41.317 30.473 67.501 30.473 35.851 0 64.606-25.648 69.321-60zm-309.301 45.493c-18.899 20.126-44.31 32.236-71.971 34.209-8.108 32.751-20.559 75.017-36.877 106.818 7.862 17.139 13.747 35.139 17.578 53.479h342.499c3.832-18.34 9.716-36.34 17.578-53.479-16.319-31.801-28.769-74.067-36.876-106.818-27.662-1.973-53.073-14.083-71.972-34.21-20.055 21.239-48.462 34.508-79.979 34.508s-59.924-13.268-79.98-34.507zm139.98 244.447c6.154-6.139 14.641-9.94 24-9.94h72c3.544 0 6.963.547 10.178 1.558.255-7.191.839-14.385 1.735-21.558h-335.827c.897 7.173 1.48 14.367 1.736 21.558 3.215-1.011 6.634-1.558 10.178-1.558h72c9.359 0 17.846 3.802 24 9.941 6.154-6.139 14.641-9.941 24-9.941h72c9.359 0 17.846 3.801 24 9.94zm-24 10.06h-72c-7.72 0-14 6.28-14 14v6.005h100v-6.005c0-7.72-6.28-14-14-14zm-265.322-300c4.715 34.352 33.471 60 69.322 60 26.184 0 50.408-11.025 67.503-30.474-5.819-9.023-10.354-18.949-13.346-29.526zm-.678 46.821v129.179h24.081c14.434-28.601 25.773-66.335 33.489-96.845-19.867-2.66-38.016-11.674-52.03-26.077-1.955-2.01-3.797-4.101-5.54-6.257zm43.761 233.179c-1.312-28.685-8.235-57.431-20.249-84h-23.512v84zm96.239 74.005c0-7.72-6.28-14-14-14h-112c-7.72 0-14 6.28-14 14v42.995h140zm10-24.06c2.873-2.866 6.259-5.214 10-6.912v-9.033c0-7.72-6.28-14-14-14h-72c-7.72 0-14 6.28-14 14v6.005h66c9.359 0 17.846 3.801 24 9.94zm150 24.06c0-7.72-6.28-14-14-14h-112c-7.72 0-14 6.28-14 14v42.995h140zm10-24.06c6.154-6.139 14.641-9.94 24-9.94h66v-6.005c0-7.72-6.28-14-14-14h-72c-7.72 0-14 6.28-14 14v9.033c3.741 1.698 7.127 4.046 10 6.912zm24 10.06c-7.72 0-14 6.28-14 14v42.995h140v-42.995c0-7.72-6.28-14-14-14zm126-144.005h-23.512c-12.014 26.569-18.937 55.315-20.249 84h43.761zm0-20v-129.179c-1.743 2.156-3.586 4.248-5.54 6.257-14.014 14.404-32.164 23.417-52.031 26.078 7.715 30.51 19.054 68.243 33.49 96.845h24.081z" fill="#deac46" data-original="#000000" style=""/></g></g></svg>
